<svg xmlns="http://www.w3.org/2000/svg" width="350" height="131.338" viewBox="0 0 350 131.338"><g transform="translate(0 0)"><path d="M45.64,1.43V27.549H59.73V22.01H51.437V1.43Z" transform="translate(27.854 0.921)" fill="#25215d"/><path d="M75.159,17.183H60.57a4.573,4.573,0,0,0,4.605,3.51,4.831,4.831,0,0,0,3.994-1.771H75a10.29,10.29,0,0,1-9.936,6.586A9.984,9.984,0,0,1,54.74,15.4a10.29,10.29,0,0,1,20.564,0,8.63,8.63,0,0,1-.145,1.707M60.666,13.431h8.824a4.477,4.477,0,0,0-4.412-3.446,4.525,4.525,0,0,0-4.412,3.446" transform="translate(33.408 3.413)" fill="#25215d"/><path d="M87.614,5.66H81.077l-3.671,5.717L73.75,5.66H67.131L73.557,15.1,66.6,25.016h6.538l4.2-6.248,4.187,6.248h6.715l-7.053-9.968Z" transform="translate(40.646 3.503)" fill="#25215d"/><rect width="5.459" height="19.308" transform="translate(130.209 9.163)" fill="#25215d"/><path d="M80.42,3.352A3.382,3.382,0,1,1,83.8,6.733,3.382,3.382,0,0,1,80.42,3.352" transform="translate(49.081 0.03)" fill="#25215d"/><path d="M95.952,20.231A4.589,4.589,0,0,1,91.314,15.4a4.654,4.654,0,1,1,9.308,0,4.589,4.589,0,0,1-4.67,4.831m4.831-14.493h-.113V7.977A7.6,7.6,0,0,0,94.921,5.4c-5.25,0-9.211,4.364-9.211,10.113s3.961,10.113,9.211,10.113a7.568,7.568,0,0,0,5.91-2.786v2.335h5.3V5.851h-5.346Z" transform="translate(52.31 3.344)" fill="#25215d"/><path d="M48.292,39.411a26.489,26.489,0,0,1,10.386-10.5,30.129,30.129,0,0,1,15.1-3.768A28.986,28.986,0,0,1,91.5,30.6a26.28,26.28,0,0,1,9.839,14.9H85.78a12.464,12.464,0,0,0-4.928-5.539,13.849,13.849,0,0,0-7.246-1.916,13.527,13.527,0,0,0-10.628,4.477A17.584,17.584,0,0,0,58.92,54.677a17.617,17.617,0,0,0,4.058,12.109,13.527,13.527,0,0,0,10.58,4.541,13.832,13.832,0,0,0,7.246-1.9,12.641,12.641,0,0,0,4.928-5.539h15.556a26.1,26.1,0,0,1-9.839,14.847,29.146,29.146,0,0,1-17.713,5.411,30.113,30.113,0,0,1-15.1-3.752A26.715,26.715,0,0,1,48.292,70.007a31.031,31.031,0,0,1-3.72-15.314,31.24,31.24,0,0,1,3.72-15.282" transform="translate(27.199 15.388)" fill="#0f62ae"/><path d="M124.23,66.856A17.617,17.617,0,0,0,128.416,54.6a17.536,17.536,0,0,0-4.187-12.287A14.316,14.316,0,0,0,113.1,37.87a14.493,14.493,0,0,0-11.272,4.541,17.552,17.552,0,0,0-4.187,12.335,17.536,17.536,0,0,0,4.187,12.287,15.845,15.845,0,0,0,22.335,0M98.078,80.64A28.373,28.373,0,0,1,87.241,70.076a29.694,29.694,0,0,1-4.01-15.346,29.533,29.533,0,0,1,4.01-15.314,28.486,28.486,0,0,1,10.837-10.58,31.481,31.481,0,0,1,30.048,0,27.939,27.939,0,0,1,10.757,10.58,29.952,29.952,0,0,1,3.929,15.314,29.984,29.984,0,0,1-3.977,15.346A28.068,28.068,0,0,1,128.078,80.7a31.385,31.385,0,0,1-30,0" transform="translate(50.795 15.318)" fill="#0f62ae"/><path d="M138.371,51.638h8.76a8.052,8.052,0,0,0,5.845-1.9,7.182,7.182,0,0,0,1.932-5.378,7,7,0,0,0-1.932-5.217,8.052,8.052,0,0,0-5.845-1.9h-8.76Zm15.475,31.948L141.752,61.735h-3.382V83.587H124.2V25.5h23.833a26.039,26.039,0,0,1,11.626,2.415,16.586,16.586,0,0,1,7.246,6.57,18.406,18.406,0,0,1,2.383,9.308,17.262,17.262,0,0,1-3.221,10.354,17.488,17.488,0,0,1-9.662,6.441L169.8,83.6Z" transform="translate(75.8 15.608)" fill="#0f62ae"/><path d="M170.935,36.837V48.576h18.953V59.51H170.935V72.247h21.433V83.584H156.78V25.5h35.588V36.837Z" transform="translate(95.684 15.611)" fill="#0f62ae"/><path d="M221.765,37.577H196.645v11.1a11.868,11.868,0,0,1,4.509-2.9,19.05,19.05,0,0,1,16.3,1.61,16.232,16.232,0,0,1,5.845,7.085,23.977,23.977,0,0,1,1.852,9.42q0,9.42-5.314,14.928t-14.976,5.459a26.489,26.489,0,0,1-11.272-2.206,17.327,17.327,0,0,1-7.327-6.167,17.891,17.891,0,0,1-2.818-9.1h13.446a7.23,7.23,0,0,0,2.335,4.155,7.391,7.391,0,0,0,5.072,1.61,6.651,6.651,0,0,0,5.636-2.415,10.274,10.274,0,0,0,1.852-6.441,8.615,8.615,0,0,0-1.932-6.039,8.47,8.47,0,0,0-10.145-.757,6.264,6.264,0,0,0-2.335,3.494H184.084V25.5h37.6Z" transform="translate(111.954 15.611)" fill="#379cd7"/><path d="M164.944,75.645a7.81,7.81,0,0,0-3.124-4.622,9.871,9.871,0,0,0-5.813-1.61,10.129,10.129,0,0,0-5.072,1.256,8.776,8.776,0,0,0-3.462,3.478,10.963,10.963,0,0,0,0,10.129,9.018,9.018,0,0,0,3.43,3.414,10.29,10.29,0,0,0,5.072,1.24A9.662,9.662,0,0,0,160.306,88a9.292,9.292,0,0,0,4.928-5.7V77.948H155.089v3.446h5.942a4.911,4.911,0,0,1-1.739,2.528,4.831,4.831,0,0,1-2.915.87,5.25,5.25,0,0,1-3.865-1.546,6.57,6.57,0,0,1,0-8.132,4.734,4.734,0,0,1,3.655-1.5,4.928,4.928,0,0,1,2.287.5,3.51,3.51,0,0,1,1.481,1.465Zm-21.32-6.071h-4.686v11.9l-7.826-11.9h-4.67V88.785h4.67V76.933l7.826,11.852h4.686ZM118.358,88.785h4.686V69.574h-4.686Zm-13-4.042H103.14V73.584h2.222a5.137,5.137,0,0,1,5.6,5.62,5.443,5.443,0,0,1-1.481,4.042,5.62,5.62,0,0,1-4.122,1.449m.29-15.169h-7.2V88.785h7.2a11.272,11.272,0,0,0,5.3-1.192,8.68,8.68,0,0,0,3.543-3.4,10.773,10.773,0,0,0,0-10.032,8.7,8.7,0,0,0-3.527-3.382,11.159,11.159,0,0,0-5.314-1.208M84.3,81.78l2.367-7.037,2.367,7.037Zm7.1,7h4.944L89.4,69.574H83.977L77.021,88.785h4.831L83.011,85.4h7.166ZM75.3,73.326V69.574H63.478V88.785H75.217V85.033H68.148v-4.2h6.28V77.207h-6.28V73.326Zm-24.944.129h2.9a2.689,2.689,0,0,1,1.932.628,2.319,2.319,0,0,1,.644,1.739,2.351,2.351,0,0,1-.644,1.771,2.689,2.689,0,0,1-1.932.628h-2.9Zm10.37,15.33-4.428-7.6a5.878,5.878,0,0,0,3.221-2.142A5.781,5.781,0,0,0,60.6,75.629a6.1,6.1,0,0,0-.805-3.092,5.411,5.411,0,0,0-2.432-2.174,8.7,8.7,0,0,0-3.881-.789H45.62V88.785h4.686V81.539h1.127l3.994,7.246Z" transform="translate(27.842 42.407)" fill="#25215d"/><path d="M50.032,70.829a37.375,37.375,0,0,0-6.023-2.254A51.691,51.691,0,0,0,45.7,56.82h9.839a25.636,25.636,0,0,1-5.507,14.01M17.987,52.794A47.681,47.681,0,0,1,19.6,41.94a54.751,54.751,0,0,0,10.29.966,54.509,54.509,0,0,0,10.274-.966,46.8,46.8,0,0,1,1.61,10.853ZM29.839,66.707a56.183,56.183,0,0,0-10.29.966,47.553,47.553,0,0,1-1.61-10.853H41.675a47.568,47.568,0,0,1-1.61,10.837,55.942,55.942,0,0,0-10.29-.95m-12.882,5.7a28,28,0,0,0,3.349,6.345,25.6,25.6,0,0,1-7.7-4.831,32.785,32.785,0,0,1,4.348-1.514M13.961,56.82a51.529,51.529,0,0,0,1.707,11.755,36.263,36.263,0,0,0-6.006,2.254A25.765,25.765,0,0,1,4.138,56.82ZM15.668,41.1a51.658,51.658,0,0,0-1.707,11.755H4.122A25.765,25.765,0,0,1,9.662,38.784,36.264,36.264,0,0,0,15.668,41.1m1.24-3.833a32.784,32.784,0,0,1-4.348-1.514,25.6,25.6,0,0,1,7.7-4.831,28.357,28.357,0,0,0-3.349,6.345m22.544-6.345a26.006,26.006,0,0,1,7.7,4.831,33.025,33.025,0,0,1-4.364,1.514,28.985,28.985,0,0,0-3.333-6.345m-.6,7.23a51.529,51.529,0,0,1-17.971,0c2.319-5.733,5.717-9.1,8.986-9.1s6.667,3.366,8.986,9.1m3.929,34.3a35.541,35.541,0,0,1,4.364,1.61,26.006,26.006,0,0,1-7.7,4.831,28.776,28.776,0,0,0,3.333-6.441M29.9,80.684c-3.221,0-6.667-3.366-8.986-9.1a51.53,51.53,0,0,1,17.971,0c-2.319,5.733-5.717,9.1-8.986,9.1M45.765,52.858A51.691,51.691,0,0,0,44.01,41.1a36.811,36.811,0,0,0,6.023-2.254,25.636,25.636,0,0,1,5.507,14.01ZM29.839,25A29.839,29.839,0,1,0,59.678,54.807,29.839,29.839,0,0,0,29.839,25" transform="translate(0 15.306)" fill="#379cd7"/><path d="M211,58.854v.821h1.256v4.283H213.3V59.611h1.24V58.79Zm8.9,0-1.61,3.913-1.61-3.913h-1.353v5.1h.966V60.223l1.61,3.8h.741l1.61-3.752v3.688h.966v-5.1Z" transform="translate(128.774 35.928)" fill="#379cd7"/></g></svg>